REM DIRINDEX 1
REM DIRNAME folder01
TITLE ""
FILE "Disk2Track60.mp3" MP3
  TRACK 01 AUDIO
    TITLE "1:cjc069_0868"
    INDEX 01 00:00:00
  TRACK 02 AUDIO
    TITLE "1:cjc069_0869"
    INDEX 01 00:16:65
  TRACK 03 AUDIO
    TITLE "1:cjc069_0870"
    INDEX 01 00:30:05
  TRACK 04 AUDIO
    TITLE "0:"
    INDEX 01 00:43:29
